<?xml version="1.0" encoding="UTF-8"?>
<svg xmlns="http://www.w3.org/2000/svg" xmlns:xlink="http://www.w3.org/1999/xlink" width="24px" height="24px" viewBox="0 0 24 24" version="1.1">
<g id="surface1">
<path style=" stroke:none;fill-rule:nonzero;fill:rgb(0%,0%,0%);fill-opacity:1;" d="M 23.761719 12 C 23.761719 14.132812 23.234375 16.101562 22.183594 17.902344 C 21.132812 19.703125 19.703125 21.132812 17.902344 22.183594 C 16.101562 23.234375 14.132812 23.761719 12 23.761719 C 9.867188 23.761719 7.898438 23.234375 6.097656 22.183594 C 4.292969 21.132812 2.867188 19.703125 1.816406 17.902344 C 0.765625 16.101562 0.238281 14.132812 0.238281 12 C 0.238281 9.867188 0.765625 7.898438 1.816406 6.097656 C 2.867188 4.296875 4.296875 2.867188 6.097656 1.816406 C 7.898438 0.765625 9.867188 0.238281 12 0.238281 C 14.132812 0.238281 16.101562 0.765625 17.902344 1.816406 C 19.703125 2.867188 21.132812 4.296875 22.183594 6.097656 C 23.234375 7.894531 23.761719 9.867188 23.761719 12 Z M 23.761719 12 "/>
</g>
</svg>
